<svg width="16" height="16" viewBox="0 0 16 16" fill="none" xmlns="http://www.w3.org/2000/svg">
<path d="M3.12629 15.5376C3.53968 15.8485 4.01964 15.9986 4.49609 15.9986C5.21312 15.9986 5.92076 15.6587 6.37618 15.0199C6.37748 15.0185 6.37872 15.0171 6.37989 15.0156C6.38099 15.0141 6.38209 15.0126 6.38312 15.0111L6.38469 15.0088C6.38579 15.0072 6.38682 15.0056 6.38785 15.0042L7.99939 12.7093L9.61093 15.0042C9.61251 15.0066 9.61416 15.0086 9.61574 15.0107C9.6165 15.0117 9.61718 15.0127 9.61794 15.0138C10.377 16.0845 11.8356 16.3203 12.8737 15.5388C13.913 14.7574 14.1454 13.2464 13.3957 12.1674L13.394 12.1647C13.3926 12.1624 13.3915 12.1607 13.3898 12.1589L11.7818 9.86282L14.3871 8.9846C15.6109 8.57209 16.2836 7.20391 15.8853 5.93607C15.4872 4.6683 14.1676 3.9715 12.9426 4.38282L10.3373 5.25745L10.3362 2.41823C10.3349 1.08511 9.28743 0 8.00056 0C6.71369 0 5.6662 1.08511 5.66504 2.41944L5.6627 5.25625L3.0574 4.3816C3.05637 4.3816 3.05511 4.38137 3.05385 4.381C3.05221 4.38054 3.05052 4.37986 3.04921 4.37918C1.82656 3.97272 0.511641 4.66951 0.1146 5.93493C-0.282448 7.20028 0.38553 8.56362 1.60351 8.97976C1.60464 8.98012 1.60564 8.98055 1.60661 8.98097L1.61091 8.98268L1.61286 8.98339L4.21699 9.86161L2.60896 12.1577C2.60837 12.1589 2.60751 12.1601 2.60664 12.1613C2.60575 12.1626 2.60488 12.1638 2.6043 12.165C1.85341 13.244 2.08697 14.7562 3.12629 15.5376Z" fill="#0068FF"/>
</svg>
